<svg id="Ebene_1" data-name="Ebene 1" xmlns="http://www.w3.org/2000/svg" viewBox="0 0 332 130"><defs><style>.cls-1{fill:#00b1e2;}.cls-2{fill:#243b53;}</style></defs><title>DataCite-Logos</title><path class="cls-1" d="M92.91,49a.64.64,0,0,1-.19-.45V13.14a.62.62,0,0,1,.19-.45.6.6,0,0,1,.44-.18h13.11a16,16,0,0,1,6.89,1.39,10.74,10.74,0,0,1,4.59,3.9,10.53,10.53,0,0,1,1.62,5.82V38.09a10.53,10.53,0,0,1-1.62,5.82,10.8,10.8,0,0,1-4.59,3.9,16,16,0,0,1-6.89,1.39H93.35A.6.6,0,0,1,92.91,49Zm7.47-6.16h6.34a5.05,5.05,0,0,0,3.91-1.63,6.36,6.36,0,0,0,1.54-4.35V24.83a6.19,6.19,0,0,0-1.49-4.35,5.16,5.16,0,0,0-4-1.63h-6.29a.23.23,0,0,0-.26.26V42.6A.23.23,0,0,0,100.38,42.86Z"/><path class="cls-1" d="M141.32,23a10,10,0,0,1,4.16,3.22A7.51,7.51,0,0,1,147,30.8V48.57a.6.6,0,0,1-.19.45.6.6,0,0,1-.44.18h-6.14a.6.6,0,0,1-.44-.18.63.63,0,0,1-.18-.45V46.84a.22.22,0,0,0-.11-.21c-.07,0-.14,0-.21.11q-2.21,2.88-7.07,2.88a10.33,10.33,0,0,1-6.61-2,7,7,0,0,1-2.52-5.87,7.55,7.55,0,0,1,2.83-6.27q2.84-2.22,8.08-2.22h5.34a.24.24,0,0,0,.27-.27V31.85a3.5,3.5,0,0,0-1.05-2.7,4.48,4.48,0,0,0-3.15-1,5.62,5.62,0,0,0-2.7.58,2.69,2.69,0,0,0-1.39,1.62.6.6,0,0,1-.68.53l-6.34-.84c-.42-.07-.61-.23-.58-.47a7,7,0,0,1,1.76-4,10.24,10.24,0,0,1,4.09-2.78,15.53,15.53,0,0,1,5.68-1A14.9,14.9,0,0,1,141.32,23ZM138,42.91a3.72,3.72,0,0,0,1.58-3.09V37.93a.24.24,0,0,0-.27-.26h-3.77a6.68,6.68,0,0,0-3.7.89,2.84,2.84,0,0,0-1.33,2.52,2.71,2.71,0,0,0,1,2.22,4.09,4.09,0,0,0,2.68.82A6.12,6.12,0,0,0,138,42.91Z"/><path class="cls-1" d="M165.82,28a.6.6,0,0,1-.44.18h-5a.23.23,0,0,0-.26.26V39.56a3.89,3.89,0,0,0,.71,2.56,2.82,2.82,0,0,0,2.28.84h1.73a.65.65,0,0,1,.63.63v5a.64.64,0,0,1-.63.68c-1.47.07-2.52.11-3.15.11-2.9,0-5.06-.48-6.5-1.44S153,45.15,153,42.49v-14a.23.23,0,0,0-.26-.26h-3a.6.6,0,0,1-.44-.18.58.58,0,0,1-.19-.45V22.89a.58.58,0,0,1,.19-.45.6.6,0,0,1,.44-.18h3A.23.23,0,0,0,153,22V15.76a.6.6,0,0,1,.19-.45.6.6,0,0,1,.44-.18h5.87a.61.61,0,0,1,.45.18.63.63,0,0,1,.18.45V22a.23.23,0,0,0,.26.26h5a.6.6,0,0,1,.44.18.61.61,0,0,1,.18.45v4.66A.61.61,0,0,1,165.82,28Z"/><path class="cls-1" d="M187.29,23a10,10,0,0,1,4.16,3.22A7.51,7.51,0,0,1,193,30.8V48.57a.6.6,0,0,1-.19.45.6.6,0,0,1-.44.18h-6.14a.6.6,0,0,1-.44-.18.63.63,0,0,1-.18-.45V46.84a.22.22,0,0,0-.11-.21c-.07,0-.14,0-.21.11q-2.2,2.88-7.08,2.88a10.32,10.32,0,0,1-6.6-2A7,7,0,0,1,169,41.76a7.55,7.55,0,0,1,2.83-6.27q2.83-2.22,8.08-2.22h5.34a.24.24,0,0,0,.27-.27V31.85a3.5,3.5,0,0,0-1.05-2.7,4.48,4.48,0,0,0-3.15-1,5.62,5.62,0,0,0-2.7.58,2.69,2.69,0,0,0-1.39,1.62.6.6,0,0,1-.68.53l-6.34-.84c-.42-.07-.61-.23-.58-.47a7,7,0,0,1,1.76-4,10.24,10.24,0,0,1,4.09-2.78,15.53,15.53,0,0,1,5.68-1A14.9,14.9,0,0,1,187.29,23ZM184,42.91a3.72,3.72,0,0,0,1.58-3.09V37.93a.24.24,0,0,0-.27-.26h-3.77a6.68,6.68,0,0,0-3.7.89,2.84,2.84,0,0,0-1.33,2.52,2.71,2.71,0,0,0,1,2.22,4.09,4.09,0,0,0,2.68.82A6.12,6.12,0,0,0,184,42.91Z"/><path class="cls-1" d="M3.52,46c.51.09,1,.19,1.56.28,25.73,5.11,64-1.66,68.94-14.13C77.89,22.1,56.31,15,31.09,15.84a8.17,8.17,0,0,0-1.48.09c13.44,1.34,25.54,6.68,20.71,15C45,40.05,22.62,46.12,3.52,46"/><path class="cls-2" d="M205.05,48.23a10.46,10.46,0,0,1-4.32-4.09,11.87,11.87,0,0,1-1.55-6.1V23.62a11.67,11.67,0,0,1,1.55-6,10.58,10.58,0,0,1,4.32-4.06,13.87,13.87,0,0,1,6.45-1.44A14.06,14.06,0,0,1,218,13.5a10.55,10.55,0,0,1,4.32,4,11.24,11.24,0,0,1,1.55,5.92.54.54,0,0,1-.16.42.5.5,0,0,1-.36.16l-2.68.15c-.35,0-.52-.15-.52-.47v-.15a7.79,7.79,0,0,0-2.36-5.95,9.81,9.81,0,0,0-12.48,0,7.84,7.84,0,0,0-2.35,5.93V38.19a7.84,7.84,0,0,0,2.35,5.93,9.81,9.81,0,0,0,12.48,0,7.8,7.8,0,0,0,2.36-6v-.1c0-.32.17-.47.52-.47l2.68.15c.34,0,.52.16.52.47a11.52,11.52,0,0,1-1.55,6,10.46,10.46,0,0,1-4.32,4,14.06,14.06,0,0,1-6.45,1.41A13.87,13.87,0,0,1,205.05,48.23Z"/><path class="cls-2" d="M229.22,17a2.85,2.85,0,0,1-.84-2.1,2.82,2.82,0,0,1,.84-2.12,3.09,3.09,0,0,1,4.19,0,2.82,2.82,0,0,1,.84,2.12,3,3,0,0,1-5,2.1Zm.1,31.6V23.15a.47.47,0,0,1,.53-.53h2.67a.47.47,0,0,1,.53.53V48.62a.47.47,0,0,1-.53.53h-2.67A.47.47,0,0,1,229.32,48.62Z"/><path class="cls-2" d="M252,25.77H246c-.14,0-.2.07-.2.21V41.44A4.62,4.62,0,0,0,247,45a5.16,5.16,0,0,0,3.54,1h1.31a.46.46,0,0,1,.52.53v2.15a.46.46,0,0,1-.52.52c-.42,0-1.07,0-1.94,0a9.66,9.66,0,0,1-5.71-1.41c-1.3-1-1.94-2.69-1.94-5.24V26a.19.19,0,0,0-.21-.21h-3.2a.46.46,0,0,1-.52-.52V23.2a.46.46,0,0,1,.52-.52H242a.19.19,0,0,0,.21-.21V16.39a.46.46,0,0,1,.52-.53h2.57a.47.47,0,0,1,.53.53v6.08c0,.14.06.21.2.21H252a.46.46,0,0,1,.52.52v2.05A.46.46,0,0,1,252,25.77Z"/><path class="cls-2" d="M276.81,35.15v1.68a.46.46,0,0,1-.52.52H259.36a.19.19,0,0,0-.21.21,23.63,23.63,0,0,0,.31,3.73A6.3,6.3,0,0,0,261.93,45a8,8,0,0,0,4.82,1.36,7.4,7.4,0,0,0,3.88-1,6.78,6.78,0,0,0,2.62-2.83c.21-.31.45-.38.73-.21l2,1.21a.52.52,0,0,1,.21.73,9.49,9.49,0,0,1-3.93,4,12.33,12.33,0,0,1-6,1.44A11,11,0,0,1,260,47.89a9.57,9.57,0,0,1-3.62-4.82,21.55,21.55,0,0,1-.94-7.24c0-1.46,0-2.66.08-3.59a11.4,11.4,0,0,1,.39-2.49,9.68,9.68,0,0,1,3.59-5.45,10.53,10.53,0,0,1,6.53-2c3.18,0,5.62.8,7.34,2.41a11.19,11.19,0,0,1,3.19,6.81A26.62,26.62,0,0,1,276.81,35.15Zm-15-8.31a6.21,6.21,0,0,0-2.23,3.59,17.1,17.1,0,0,0-.42,3.57.19.19,0,0,0,.21.21h13.57a.19.19,0,0,0,.21-.21,24,24,0,0,0-.31-3.36,6.62,6.62,0,0,0-2.33-3.74,6.9,6.9,0,0,0-4.43-1.39A6.7,6.7,0,0,0,261.8,26.84Z"/><path class="cls-2" d="M59.85,47.3C55.38,74.36,32,58.21,26.48,39.39c-8-19.56-.87-44.69,19.15-30C29.06,1.83,27.31,23.83,34.4,39.48c5.89,13.07,18.68,21.49,24.85,8,.28-.09.51-.09.6-.18"/><path class="cls-2" d="M130.51,75.78a.9.9,0,0,1-.68.28H102.46a.36.36,0,0,0-.4.41v15a.35.35,0,0,0,.4.4H120.9a1,1,0,0,1,1,1V99a.94.94,0,0,1-.28.69,1,1,0,0,1-.68.28H102.46a.35.35,0,0,0-.4.4v23a.9.9,0,0,1-.28.68.94.94,0,0,1-.68.29H93.69a1,1,0,0,1-1-1V69a1,1,0,0,1,1-1h36.14a1,1,0,0,1,1,1V75.1A.92.92,0,0,1,130.51,75.78Z"/><path class="cls-2" d="M152.93,84.35a14.08,14.08,0,0,1,6,4.87,12.36,12.36,0,0,1,2.09,7v27.12a1,1,0,0,1-1,1h-7.4a1,1,0,0,1-1-1v-2.57c0-.17,0-.26-.16-.29a.36.36,0,0,0-.32.12Q147.22,125,139.73,125a15.63,15.63,0,0,1-9.94-3.06q-3.9-3.06-3.9-9.09a11.81,11.81,0,0,1,4.38-9.78c2.93-2.34,7-3.5,12.36-3.5h8.61a.36.36,0,0,0,.4-.41V97.23a6.37,6.37,0,0,0-1.85-4.87,7.89,7.89,0,0,0-5.55-1.73,9.81,9.81,0,0,0-5,1.09,4.72,4.72,0,0,0-2.38,3c-.16.64-.53.91-1.12.8l-7.81-1a1.65,1.65,0,0,1-.69-.28.47.47,0,0,1-.2-.52,11.3,11.3,0,0,1,5.27-8A20.33,20.33,0,0,1,144,82.58,21.24,21.24,0,0,1,152.93,84.35Zm-4.11,31.15a6.35,6.35,0,0,0,2.82-5.31v-3.78a.36.36,0,0,0-.4-.41h-6.76a12.14,12.14,0,0,0-6.72,1.61,5.18,5.18,0,0,0-2.46,4.59,4.69,4.69,0,0,0,1.89,4,7.94,7.94,0,0,0,4.87,1.4A11,11,0,0,0,148.82,115.5Z"/><path class="cls-2" d="M204,103.67a30.26,30.26,0,0,1-1.53,10.06,16.68,16.68,0,0,1-5.71,8.29,15.54,15.54,0,0,1-9.66,3,11.6,11.6,0,0,1-9.26-4.27c-.11-.16-.21-.21-.32-.16a.33.33,0,0,0-.16.33v2.49a1,1,0,0,1-1,1H169a.94.94,0,0,1-.69-.29.9.9,0,0,1-.28-.68V69a.9.9,0,0,1,.28-.68A.94.94,0,0,1,169,68h7.4a1,1,0,0,1,1,1V86.45a.31.31,0,0,0,.16.32.26.26,0,0,0,.32-.08A11.41,11.41,0,0,1,187,82.58a15.84,15.84,0,0,1,9.86,3,17.24,17.24,0,0,1,5.75,8.29A33.78,33.78,0,0,1,204,103.67Zm-9.58.16q0-6.27-2.41-9.82a7.18,7.18,0,0,0-6.44-3.38,6.64,6.64,0,0,0-6,3.54c-1.34,2.2-2,5.4-2,9.58s.61,7.24,1.85,9.34a6.74,6.74,0,0,0,6.28,3.86,8,8,0,0,0,4-1,7.52,7.52,0,0,0,2.82-2.86C193.74,110.83,194.38,107.75,194.38,103.83Z"/><path class="cls-2" d="M233.66,83.79a1,1,0,0,1,.49,1.21l-1.37,7.24c-.06.64-.43.83-1.13.56a9.13,9.13,0,0,0-2.82-.4,13,13,0,0,0-1.61.08,8.3,8.3,0,0,0-5.63,2.38,7.7,7.7,0,0,0-2.25,5.75v22.78a1,1,0,0,1-1,1H211a.94.94,0,0,1-.68-.29.9.9,0,0,1-.28-.68V84.19a.91.91,0,0,1,.28-.68.93.93,0,0,1,.68-.28h7.41a.9.9,0,0,1,.68.28.92.92,0,0,1,.29.68v3.62c0,.22,0,.34.12.37s.17,0,.28-.21a10.64,10.64,0,0,1,9.42-5.23A9.26,9.26,0,0,1,233.66,83.79Z"/><path class="cls-2" d="M240.19,76a5.72,5.72,0,0,1,4.1-9.82,5.72,5.72,0,1,1,0,11.43A5.52,5.52,0,0,1,240.19,76Zm-.45,48.09a.9.9,0,0,1-.28-.68V84.11a.91.91,0,0,1,.28-.68.94.94,0,0,1,.69-.28h7.4a.94.94,0,0,1,.69.28,1,1,0,0,1,.28.68v39.28a1,1,0,0,1-1,1h-7.4A.94.94,0,0,1,239.74,124.07Z"/><path class="cls-2" d="M261.92,121.82a16.48,16.48,0,0,1-6.28-8.57,29.57,29.57,0,0,1-1.29-9.66,29.39,29.39,0,0,1,1.29-9.5,15.62,15.62,0,0,1,6.24-8.41,18.64,18.64,0,0,1,10.74-3.1,19.17,19.17,0,0,1,10.95,3.14,14.94,14.94,0,0,1,6.2,7.89,15.88,15.88,0,0,1,.56,2.58v.16a.93.93,0,0,1-.89,1l-7.24,1H282a1,1,0,0,1-1-.81,1.92,1.92,0,0,0-.08-.64c-.11-.43-.21-.81-.32-1.13a7,7,0,0,0-2.9-3.7,9,9,0,0,0-5.15-1.45,8.48,8.48,0,0,0-5.19,1.57,7.62,7.62,0,0,0-2.86,4.31,25.25,25.25,0,0,0-.8,7.16,29,29,0,0,0,.72,7.16,8.47,8.47,0,0,0,2.9,4.47,8.18,8.18,0,0,0,5.23,1.65,8.83,8.83,0,0,0,5.27-1.57,7,7,0,0,0,2.86-4.22,1,1,0,0,0,.08-.41.33.33,0,0,0,.08-.24.9.9,0,0,1,1.13-.8l7.24,1.12a1.37,1.37,0,0,1,.69.37.82.82,0,0,1,.2.76c-.16.86-.3,1.48-.4,1.85a14.34,14.34,0,0,1-6.2,8.17,19.73,19.73,0,0,1-10.95,3A18.07,18.07,0,0,1,261.92,121.82Z"/><path class="cls-2" d="M320.43,84.35a14.08,14.08,0,0,1,6,4.87,12.36,12.36,0,0,1,2.09,7v27.12a.9.9,0,0,1-.28.68.94.94,0,0,1-.69.29h-7.4a1,1,0,0,1-1-1v-2.57c0-.17-.05-.26-.16-.29a.37.37,0,0,0-.32.12Q314.71,125,307.23,125a15.63,15.63,0,0,1-9.94-3.06q-3.9-3.06-3.9-9.09a11.81,11.81,0,0,1,4.38-9.78q4.39-3.51,12.36-3.5h8.61a.36.36,0,0,0,.4-.41V97.23a6.33,6.33,0,0,0-1.85-4.87q-1.85-1.73-5.55-1.73a9.81,9.81,0,0,0-4.95,1.09,4.75,4.75,0,0,0-2.38,3c-.16.64-.53.91-1.12.8l-7.81-1a1.55,1.55,0,0,1-.68-.28.44.44,0,0,1-.2-.52,11.24,11.24,0,0,1,5.27-8,20.27,20.27,0,0,1,11.63-3.14A21.21,21.21,0,0,1,320.43,84.35Zm-4.1,31.15a6.36,6.36,0,0,0,2.81-5.31v-3.78a.36.36,0,0,0-.4-.41H312a12.19,12.19,0,0,0-6.72,1.61,5.18,5.18,0,0,0-2.46,4.59,4.69,4.69,0,0,0,1.9,4,7.92,7.92,0,0,0,4.87,1.4A11,11,0,0,0,316.33,115.5Z"/></svg>